<svg fill="none" xmlns="http://www.w3.org/2000/svg" viewBox="0 0 63 28"><path d="M37.95 5.3v21.14h-1.71v.92h10.75v-.92h-1.7V.28l-9.44 3.25 2.1 1.77Z" fill="#121718"/><path d="M36.27 24.1c-1.54 2.32-4 3.62-7.42 3.62-5.18 0-9.44-3.54-9.44-9.14 0-5.27 3.6-9.64 9.48-9.64 3.45 0 5.84 1.99 5.84 4.62 0 3-2.35 5.64-6.76 7.26 2.1 2.02 4.74 3.36 7.2 3.36.37 0 .73-.04 1.06-.11l.04.04Zm-8.75-3.74a6.6 6.6 0 0 0 1.55-5.59c-.44-2.55-2.1-4.3-3.47-4.3-.95 0-1.5.79-1.5 2.13 0 2.89 1.35 5.57 3.42 7.76ZM10.59 10.5.06 27.36h17.63V18.8h-.03a16.58 16.58 0 0 1-2.18 3.68c-2.68 3.32-5.81 4.04-7.36 4.04L18.58 9.67H1.6v8.45h.04c.79-1.54 1.6-2.83 2.43-3.9 2.39-2.95 5.15-3.7 6.52-3.72ZM63 24.04c-1.36 2.13-3.79 3.68-7.16 3.68-4.38 0-6.1-2.53-6.1-7.22v-9.92h-3.22v-.04l10.56-8.2v7.33h5.18v.9h-5.18v8.09c0 4.19 1 5.74 3.71 5.74.81 0 1.44-.11 2.17-.4l.04.04Z" fill="#121718"/></svg>
